<?xml version="1.0" encoding="UTF-8" standalone="no"?>
<svg
   xmlns:osb="http://www.openswatchbook.org/uri/2009/osb"
   xmlns:dc="http://purl.org/dc/elements/1.1/"
   xmlns:cc="http://creativecommons.org/ns#"
   xmlns:rdf="http://www.w3.org/1999/02/22-rdf-syntax-ns#"
   xmlns:svg="http://www.w3.org/2000/svg"
   xmlns="http://www.w3.org/2000/svg"
   xmlns:xlink="http://www.w3.org/1999/xlink"
   xmlns:sodipodi="http://sodipodi.sourceforge.net/DTD/sodipodi-0.dtd"
   xmlns:inkscape="http://www.inkscape.org/namespaces/inkscape"
   width="1280"
   height="640"
   viewBox="0 0 338.66666 169.33334"
   version="1.1"
   id="svg8"
   inkscape:version="1.0 (4035a4f, 2020-05-01)"
   sodipodi:docname="social_preview.svg"
   inkscape:export-filename="/Users/roemerle/Documents/Analytics/nflreadr/data-raw/social_preview.png"
   inkscape:export-xdpi="150"
   inkscape:export-ydpi="150">
  <defs
     id="defs2">
    <linearGradient
       inkscape:collect="always"
       id="linearGradient2048">
      <stop
         style="stop-color:#b3b3b3;stop-opacity:1;"
         offset="0"
         id="stop2044" />
      <stop
         style="stop-color:#b3b3b3;stop-opacity:0;"
         offset="1"
         id="stop2046" />
    </linearGradient>
    <filter
       inkscape:collect="always"
       style="color-interpolation-filters:sRGB"
       id="filter2034"
       x="-0.029181745"
       width="1.0583635"
       y="-0.058233214"
       height="1.1164664">
      <feGaussianBlur
         inkscape:collect="always"
         stdDeviation="4.1086767"
         id="feGaussianBlur2036" />
    </filter>
    <linearGradient
       inkscape:collect="always"
       xlink:href="#linearGradient2048"
       id="linearGradient2050"
       x1="182.54405"
       y1="-63.286987"
       x2="182.73596"
       y2="133.48386"
       gradientUnits="userSpaceOnUse" />
    <rect
       x="149.82996"
       y="-36.145749"
       width="414.51012"
       height="341.05263"
       id="rect3500" />
    <rect
       x="570.75303"
       y="306.65587"
       width="420.34008"
       height="327.64372"
       id="rect2460" />
    <rect
       x="565.50607"
       y="297.91093"
       width="421.50607"
       height="353.87854"
       id="rect2454" />
    <rect
       x="136.42105"
       y="-48.97166"
       width="366.30882"
       height="229.40097"
       id="rect2448" />
    <marker
       style="overflow:visible"
       id="TriangleOutL"
       refX="0.0"
       refY="0.0"
       orient="auto"
       inkscape:stockid="TriangleOutL"
       inkscape:isstock="true">
      <path
         transform="scale(0.8)"
         style="fill-rule:evenodd;stroke:#e8eaed;stroke-width:1pt;stroke-opacity:1;fill:#e8eaed;fill-opacity:1"
         d="M 5.77,0.0 L -2.88,5.0 L -2.88,-5.0 L 5.77,0.0 z "
         id="path1132" />
    </marker>
    <marker
       style="overflow:visible;"
       id="Arrow2Mend"
       refX="0.0"
       refY="0.0"
       orient="auto"
       inkscape:stockid="Arrow2Mend"
       inkscape:isstock="true">
      <path
         transform="scale(0.6) rotate(180) translate(0,0)"
         d="M 8.7185878,4.0337352 L -2.2072895,0.016013256 L 8.7185884,-4.0017078 C 6.9730900,-1.6296469 6.9831476,1.6157441 8.7185878,4.0337352 z "
         style="fill-rule:evenodd;stroke-width:0.625;stroke-linejoin:round;stroke:#000000;stroke-opacity:1"
         id="path1017" />
    </marker>
    <marker
       style="overflow:visible"
       id="Tail"
       refX="0.0"
       refY="0.0"
       orient="auto"
       inkscape:stockid="Tail"
       inkscape:isstock="true">
      <g
         transform="scale(-1.2)"
         id="g1038"
         style="stroke:#000000;stroke-opacity:1;fill:#000000;fill-opacity:1">
        <path
           style="fill:#000000;fill-rule:evenodd;stroke:#000000;stroke-width:0.8;stroke-linecap:round;stroke-opacity:1;fill-opacity:1"
           d="M -3.8048674,-3.9585227 L 0.54352094,0"
           id="path1026" />
        <path
           style="fill:#000000;fill-rule:evenodd;stroke:#000000;stroke-width:0.8;stroke-linecap:round;stroke-opacity:1;fill-opacity:1"
           d="M -1.2866832,-3.9585227 L 3.0617053,0"
           id="path1028" />
        <path
           style="fill:#000000;fill-rule:evenodd;stroke:#000000;stroke-width:0.8;stroke-linecap:round;stroke-opacity:1;fill-opacity:1"
           d="M 1.3053582,-3.9585227 L 5.6537466,0"
           id="path1030" />
        <path
           style="fill:#000000;fill-rule:evenodd;stroke:#000000;stroke-width:0.8;stroke-linecap:round;stroke-opacity:1;fill-opacity:1"
           d="M -3.8048674,4.1775838 L 0.54352094,0.21974226"
           id="path1032" />
        <path
           style="fill:#000000;fill-rule:evenodd;stroke:#000000;stroke-width:0.8;stroke-linecap:round;stroke-opacity:1;fill-opacity:1"
           d="M -1.2866832,4.1775838 L 3.0617053,0.21974226"
           id="path1034" />
        <path
           style="fill:#000000;fill-rule:evenodd;stroke:#000000;stroke-width:0.8;stroke-linecap:round;stroke-opacity:1;fill-opacity:1"
           d="M 1.3053582,4.1775838 L 5.6537466,0.21974226"
           id="path1036" />
      </g>
    </marker>
    <marker
       style="overflow:visible;"
       id="marker1448"
       refX="0.0"
       refY="0.0"
       orient="auto"
       inkscape:stockid="Arrow2Lend"
       inkscape:isstock="true">
      <path
         transform="scale(1.1) rotate(180) translate(1,0)"
         d="M 8.7185878,4.0337352 L -2.2072895,0.016013256 L 8.7185884,-4.0017078 C 6.9730900,-1.6296469 6.9831476,1.6157441 8.7185878,4.0337352 z "
         style="fill-rule:evenodd;stroke-width:0.625;stroke-linejoin:round;stroke:#000000;stroke-opacity:1"
         id="path1446" />
    </marker>
    <marker
       style="overflow:visible;"
       id="Arrow2Lend"
       refX="0.0"
       refY="0.0"
       orient="auto"
       inkscape:stockid="Arrow2Lend"
       inkscape:isstock="true">
      <path
         transform="scale(1.1) rotate(180) translate(1,0)"
         d="M 8.7185878,4.0337352 L -2.2072895,0.016013256 L 8.7185884,-4.0017078 C 6.9730900,-1.6296469 6.9831476,1.6157441 8.7185878,4.0337352 z "
         style="fill-rule:evenodd;stroke-width:0.625;stroke-linejoin:round;stroke:#000000;stroke-opacity:1"
         id="path1011" />
    </marker>
    <linearGradient
       id="linearGradient1396"
       osb:paint="solid">
      <stop
         style="stop-color:#ffffff;stop-opacity:1;"
         offset="0"
         id="stop1394" />
    </linearGradient>
    <marker
       style="overflow:visible"
       id="EmptyTriangleOutL"
       refX="0.0"
       refY="0.0"
       orient="auto"
       inkscape:stockid="EmptyTriangleOutL"
       inkscape:isstock="true">
      <path
         transform="scale(0.8) translate(-6,0)"
         style="fill-rule:evenodd;fill:#ffffff;stroke:#000000;stroke-width:1pt;stroke-opacity:1;fill-opacity:1"
         d="M 5.77,0.0 L -2.88,5.0 L -2.88,-5.0 L 5.77,0.0 z "
         id="path1150" />
    </marker>
    <style
       type="text/css"
       id="style2"><![CDATA[
    .svglite line, .svglite polyline, .svglite polygon, .svglite path, .svglite rect, .svglite circle {
      fill: none;
      stroke: #000000;
      stroke-linecap: round;
      stroke-linejoin: round;
      stroke-miterlimit: 10.00;
    }
  ]]></style>
    <linearGradient
       id="linearGradient10949"
       y2="278.81"
       gradientUnits="userSpaceOnUse"
       x2="509.9"
       gradientTransform="matrix(0.93679,-0.85929,0.85927,0.93681,-400.21,462.79)"
       y1="544.75"
       x1="509.97">
      <stop
         id="stop10876"
         style="stop-color:#3c1a0f"
         offset="0" />
      <stop
         id="stop10878"
         style="stop-color:#d7bbb3"
         offset="1" />
    </linearGradient>
    <linearGradient
       id="linearGradient10954"
       y2="353.8"
       gradientUnits="userSpaceOnUse"
       x2="498.75"
       gradientTransform="matrix(.93679 -.85929 .85927 .93681 -400.21 462.79)"
       y1="750.29"
       x1="498.75">
      <stop
         id="stop10854"
         style="stop-color:#391b0f"
         offset="0" />
      <stop
         id="stop10856"
         style="stop-color:#5b2318"
         offset=".10989" />
      <stop
         id="stop10858"
         style="stop-color:#5b2318"
         offset=".27473" />
      <stop
         id="stop10860"
         style="stop-color:#905036"
         offset="1" />
    </linearGradient>
    <clipPath
       id="cpMC4wMHwxMjQuNDR8MC4xNHwxNDMuODY=-3">
      <rect
         x="0"
         y="0.14"
         width="124.44"
         height="143.71001"
         id="rect15-8" />
    </clipPath>
    <clipPath
       id="cpMC4wMHwxMjQuNDR8MC4xNHwxNDQuMDA=-8">
      <rect
         x="0"
         y="0.14"
         width="124.44"
         height="143.85001"
         id="rect26-0" />
    </clipPath>
    <clipPath
       id="clipPath1240">
      <rect
         x="0"
         y="0.14"
         width="124.44"
         height="143.85001"
         id="rect1238" />
    </clipPath>
    <marker
       style="overflow:visible"
       id="TriangleOutL-8"
       refX="0"
       refY="0"
       orient="auto"
       inkscape:stockid="TriangleOutL"
       inkscape:isstock="true">
      <path
         transform="scale(0.8)"
         style="fill:#e8eaed;fill-opacity:1;fill-rule:evenodd;stroke:#e8eaed;stroke-width:1pt;stroke-opacity:1"
         d="M 5.77,0 -2.88,5 V -5 Z"
         id="path1132-7" />
    </marker>
    <clipPath
       id="cpMC4wMHwxMjQuNDR8MC4xNHwxNDMuODY=-3-3">
      <rect
         x="0"
         y="0.14"
         width="124.44"
         height="143.71001"
         id="rect15-8-2" />
    </clipPath>
    <clipPath
       id="cpMC4wMHwxMjQuNDR8MC4xNHwxNDQuMDA=-8-2">
      <rect
         x="0"
         y="0.14"
         width="124.44"
         height="143.85001"
         id="rect26-0-0" />
    </clipPath>
    <clipPath
       id="clipPath1512">
      <rect
         x="0"
         y="0.14"
         width="124.44"
         height="143.85001"
         id="rect1510" />
    </clipPath>
    <marker
       style="overflow:visible"
       id="TriangleOutL-8-3"
       refX="0"
       refY="0"
       orient="auto"
       inkscape:stockid="TriangleOutL"
       inkscape:isstock="true">
      <path
         transform="scale(0.8)"
         style="fill:#e8eaed;fill-opacity:1;fill-rule:evenodd;stroke:#e8eaed;stroke-width:1pt;stroke-opacity:1"
         d="M 5.77,0 -2.88,5 V -5 Z"
         id="path1132-7-9" />
    </marker>
    <clipPath
       id="cpMC4wMHwxMjQuNDR8MC4xNHwxNDMuODY=-3-3-4">
      <rect
         x="0"
         y="0.14"
         width="124.44"
         height="143.71001"
         id="rect15-8-2-0" />
    </clipPath>
    <clipPath
       id="cpMC4wMHwxMjQuNDR8MC4xNHwxNDQuMDA=-8-2-1">
      <rect
         x="0"
         y="0.14"
         width="124.44"
         height="143.85001"
         id="rect26-0-0-3" />
    </clipPath>
    <clipPath
       id="clipPath1752">
      <rect
         x="0"
         y="0.14"
         width="124.44"
         height="143.85001"
         id="rect1750" />
    </clipPath>
    <marker
       style="overflow:visible"
       id="TriangleOutL-8-3-7"
       refX="0"
       refY="0"
       orient="auto"
       inkscape:stockid="TriangleOutL"
       inkscape:isstock="true">
      <path
         transform="scale(0.8)"
         style="fill:#e8eaed;fill-opacity:1;fill-rule:evenodd;stroke:#e8eaed;stroke-width:1pt;stroke-opacity:1"
         d="M 5.77,0 -2.88,5 V -5 Z"
         id="path1132-7-9-3" />
    </marker>
    <clipPath
       id="cpMC4wMHwxMjQuNDR8MC4xNHwxNDMuODY=-3-3-4-1">
      <rect
         x="0"
         y="0.14"
         width="124.44"
         height="143.71001"
         id="rect15-8-2-0-3" />
    </clipPath>
    <clipPath
       id="cpMC4wMHwxMjQuNDR8MC4xNHwxNDQuMDA=-8-2-1-7">
      <rect
         x="0"
         y="0.14"
         width="124.44"
         height="143.85001"
         id="rect26-0-0-3-3" />
    </clipPath>
    <clipPath
       id="clipPath2000">
      <rect
         x="0"
         y="0.14"
         width="124.44"
         height="143.85001"
         id="rect1998" />
    </clipPath>
    <marker
       style="overflow:visible"
       id="TriangleOutL-8-3-7-1"
       refX="0"
       refY="0"
       orient="auto"
       inkscape:stockid="TriangleOutL"
       inkscape:isstock="true">
      <path
         transform="scale(0.8)"
         style="fill:#e8eaed;fill-opacity:1;fill-rule:evenodd;stroke:#e8eaed;stroke-width:1pt;stroke-opacity:1"
         d="M 5.77,0 -2.88,5 V -5 Z"
         id="path1132-7-9-3-3" />
    </marker>
    <clipPath
       id="cpMC4wMHwxMjQuNDR8MC4xNHwxNDMuODY=-3-3-4-6">
      <rect
         x="0"
         y="0.14"
         width="124.44"
         height="143.71001"
         id="rect15-8-2-0-4" />
    </clipPath>
    <clipPath
       id="cpMC4wMHwxMjQuNDR8MC4xNHwxNDQuMDA=-8-2-1-4">
      <rect
         x="0"
         y="0.14"
         width="124.44"
         height="143.85001"
         id="rect26-0-0-3-1" />
    </clipPath>
    <clipPath
       id="clipPath2000-9">
      <rect
         x="0"
         y="0.14"
         width="124.44"
         height="143.85001"
         id="rect1998-7" />
    </clipPath>
    <marker
       style="overflow:visible"
       id="TriangleOutL-8-3-7-2"
       refX="0"
       refY="0"
       orient="auto"
       inkscape:stockid="TriangleOutL"
       inkscape:isstock="true">
      <path
         transform="scale(0.8)"
         style="fill:#e8eaed;fill-opacity:1;fill-rule:evenodd;stroke:#e8eaed;stroke-width:1pt;stroke-opacity:1"
         d="M 5.77,0 -2.88,5 V -5 Z"
         id="path1132-7-9-3-6" />
    </marker>
    <clipPath
       id="cpMC4wMHwxMjQuNDR8MC4xNHwxNDMuODY=-3-3-4-6-6">
      <rect
         x="0"
         y="0.14"
         width="124.44"
         height="143.71001"
         id="rect15-8-2-0-4-2" />
    </clipPath>
    <clipPath
       id="cpMC4wMHwxMjQuNDR8MC4xNHwxNDQuMDA=-8-2-1-4-1">
      <rect
         x="0"
         y="0.14"
         width="124.44"
         height="143.85001"
         id="rect26-0-0-3-1-5" />
    </clipPath>
    <clipPath
       id="clipPath2490">
      <rect
         x="0"
         y="0.14"
         width="124.44"
         height="143.85001"
         id="rect2488" />
    </clipPath>
    <marker
       style="overflow:visible"
       id="TriangleOutL-8-3-7-2-6"
       refX="0"
       refY="0"
       orient="auto"
       inkscape:stockid="TriangleOutL"
       inkscape:isstock="true">
      <path
         transform="scale(0.8)"
         style="fill:#e8eaed;fill-opacity:1;fill-rule:evenodd;stroke:#e8eaed;stroke-width:1pt;stroke-opacity:1"
         d="M 5.77,0 -2.88,5 V -5 Z"
         id="path1132-7-9-3-6-5" />
    </marker>
    <clipPath
       id="cpMC4wMHwxMjQuNDR8MC4xNHwxNDMuODY=-3-3-4-6-6-6">
      <rect
         x="0"
         y="0.14"
         width="124.44"
         height="143.71001"
         id="rect15-8-2-0-4-2-3" />
    </clipPath>
    <clipPath
       id="cpMC4wMHwxMjQuNDR8MC4xNHwxNDQuMDA=-8-2-1-4-1-2">
      <rect
         x="0"
         y="0.14"
         width="124.44"
         height="143.85001"
         id="rect26-0-0-3-1-5-9" />
    </clipPath>
    <clipPath
       id="clipPath3178">
      <rect
         x="0"
         y="0.14"
         width="124.44"
         height="143.85001"
         id="rect3176" />
    </clipPath>
    <marker
       style="overflow:visible"
       id="TriangleOutL-8-3-7-2-6-6"
       refX="0"
       refY="0"
       orient="auto"
       inkscape:stockid="TriangleOutL"
       inkscape:isstock="true">
      <path
         transform="scale(0.8)"
         style="fill:#e8eaed;fill-opacity:1;fill-rule:evenodd;stroke:#e8eaed;stroke-width:1pt;stroke-opacity:1"
         d="M 5.77,0 -2.88,5 V -5 Z"
         id="path1132-7-9-3-6-5-3" />
    </marker>
    <clipPath
       id="cpMC4wMHwxMjQuNDR8MC4wMHwxNDQuMDA=">
      <rect
         x="0.00"
         y="0.00"
         width="124.44"
         height="144.00"
         id="rect8" />
    </clipPath>
    <clipPath
       id="cpMC4wMHwxMjQuNDR8MC4xNHwxNDMuODY=">
      <rect
         x="0.00"
         y="0.14"
         width="124.44"
         height="143.71"
         id="rect15" />
    </clipPath>
    <clipPath
       id="cpMC4wMHwxMjQuNDR8MC4xNHwxNDQuMDA=">
      <rect
         x="0.00"
         y="0.14"
         width="124.44"
         height="143.85"
         id="rect26" />
    </clipPath>
    <clipPath
       id="cpOS4yNnwxMTUuMDR8MzUuMDV8ODcuOTQ=">
      <rect
         x="9.26"
         y="35.05"
         width="105.78"
         height="52.89"
         id="rect37" />
    </clipPath>
  </defs>
  <sodipodi:namedview
     id="base"
     pagecolor="#ffffff"
     bordercolor="#666666"
     borderopacity="1.0"
     inkscape:pageopacity="1"
     inkscape:pageshadow="2"
     inkscape:zoom="0.53985698"
     inkscape:cx="603.96717"
     inkscape:cy="255.59892"
     inkscape:document-units="mm"
     inkscape:current-layer="layer1"
     inkscape:document-rotation="0"
     showgrid="false"
     units="px"
     inkscape:window-width="1440"
     inkscape:window-height="847"
     inkscape:window-x="0"
     inkscape:window-y="25"
     inkscape:window-maximized="0" />
  <metadata
     id="metadata5">
    <rdf:RDF>
      <cc:Work
         rdf:about="">
        <dc:format>image/svg+xml</dc:format>
        <dc:type
           rdf:resource="http://purl.org/dc/dcmitype/StillImage" />
        <dc:title />
      </cc:Work>
    </rdf:RDF>
  </metadata>
  <g
     inkscape:label="Ebene 1"
     inkscape:groupmode="layer"
     id="layer1">
    <rect
       style="opacity:0.75854214;mix-blend-mode:normal;fill:url(#linearGradient2050);fill-opacity:1;stroke:none;stroke-width:1.54460239;stroke-opacity:0.444149;filter:url(#filter2034);stroke-miterlimit:4;stroke-dasharray:none"
       id="rect1974"
       width="337.91071"
       height="169.33333"
       x="0.75595492"
       y="1.4210855e-14"
       transform="matrix(0.99400506,0,0,1.0065491,1.3953865,2.4693197)" />
  </g>
  <g
     inkscape:groupmode="layer"
     id="layer2"
     inkscape:label="Ebene 2">
    <text
       xml:space="preserve"
       style="font-style:normal;font-variant:normal;font-weight:bold;font-stretch:normal;font-size:35.2778px;line-height:1.25;font-family:'Bai Jamjuree';-inkscape-font-specification:'Bai Jamjuree, Bold';font-variant-ligatures:normal;font-variant-caps:normal;font-variant-numeric:normal;font-variant-east-asian:normal;fill:#303134;fill-opacity:1;stroke:none;stroke-width:0.264583"
       x="109.29669"
       y="79.148209"
       id="text835"><tspan
         sodipodi:role="line"
         id="tspan833"
         x="109.29669"
         y="79.148209"
         style="font-style:normal;font-variant:normal;font-weight:bold;font-stretch:normal;font-size:35.2778px;font-family:'Bai Jamjuree';-inkscape-font-specification:'Bai Jamjuree, Bold';font-variant-ligatures:normal;font-variant-caps:normal;font-variant-numeric:normal;font-variant-east-asian:normal;fill:#303134;fill-opacity:1;stroke-width:0.264583">nflreadr</tspan></text>
    <text
       xml:space="preserve"
       style="font-style:normal;font-variant:normal;font-weight:normal;font-stretch:normal;font-size:15.875px;line-height:1.25;font-family:'IBM Plex Sans';-inkscape-font-specification:'IBM Plex Sans, Normal';font-variant-ligatures:normal;font-variant-caps:normal;font-variant-numeric:normal;font-variant-east-asian:normal;fill:#303134;fill-opacity:1;stroke:none;stroke-width:0.264583"
       x="45.1917"
       y="117.32382"
       id="text1102"><tspan
         sodipodi:role="line"
         id="tspan1100"
         x="45.1917"
         y="117.32382"
         style="font-style:normal;font-variant:normal;font-weight:normal;font-stretch:normal;font-size:15.875px;font-family:'IBM Plex Sans';-inkscape-font-specification:'IBM Plex Sans, Normal';font-variant-ligatures:normal;font-variant-caps:normal;font-variant-numeric:normal;font-variant-east-asian:normal;fill:#303134;fill-opacity:1;stroke-width:0.264583">efficiently downloads nflverse data</tspan></text>
    <rect
       id="rect6"
       style="fill:none;stroke:none;stroke-width:0.352778"
       height="35.277779%"
       width="35.277779%"
       x="158.35522"
       y="-74.067291" />
    <g
       transform="matrix(0.35277778,0,0,0.35277778,158.35523,-74.067295)"
       id="g13"
       clip-path="url(#cpMC4wMHwxMjQuNDR8MC4wMHwxNDQuMDA=)" />
    <g
       transform="matrix(0.35277778,0,0,0.35277778,158.35523,-74.067295)"
       id="g24"
       clip-path="url(#cpMC4wMHwxMjQuNDR8MC4wMHwxNDQuMDA=)" />
    <g
       transform="matrix(0.35277778,0,0,0.35277778,158.35523,-74.067295)"
       id="g42"
       clip-path="url(#cpOS4yNnwxMTUuMDR8MzUuMDV8ODcuOTQ=)" />
    <g
       transform="matrix(0.35277778,0,0,0.35277778,158.35523,-74.067295)"
       id="g44"
       clip-path="url(#cpMC4wMHwxMjQuNDR8MC4xNHwxNDQuMDA=)" />
    <g
       transform="matrix(0.35277778,0,0,0.35277778,158.35523,-74.067295)"
       id="g46"
       clip-path="url(#cpMC4wMHwxMjQuNDR8MC4wMHwxNDQuMDA=)" />
    <g
       transform="matrix(0.35277778,0,0,0.35277778,158.35523,-74.067295)"
       id="g48"
       clip-path="url(#cpMC4wMHwxMjQuNDR8MC4xNHwxNDQuMDA=)" />
    <g
       transform="matrix(0.35277778,0,0,0.35277778,158.35523,-74.067295)"
       id="g50"
       clip-path="url(#cpMC4wMHwxMjQuNDR8MC4wMHwxNDQuMDA=)" />
    <g
       transform="matrix(0.35277778,0,0,0.35277778,158.35523,-74.067295)"
       id="g52"
       clip-path="url(#cpMC4wMHwxMjQuNDR8MC4xNHwxNDQuMDA=)" />
    <g
       transform="matrix(0.35277778,0,0,0.35277778,158.35523,-74.067295)"
       id="g54"
       clip-path="url(#cpMC4wMHwxMjQuNDR8MC4wMHwxNDQuMDA=)" />
    <g
       transform="matrix(0.35277778,0,0,0.35277778,158.35523,-74.067295)"
       id="g56"
       clip-path="url(#cpMC4wMHwxMjQuNDR8MC4xNHwxNDQuMDA=)" />
    <g
       transform="matrix(0.35277778,0,0,0.35277778,158.35523,-74.067295)"
       id="g58"
       clip-path="url(#cpMC4wMHwxMjQuNDR8MC4wMHwxNDQuMDA=)" />
    <g
       transform="matrix(0.35277778,0,0,0.35277778,158.35523,-74.067295)"
       id="g60"
       clip-path="url(#cpMC4wMHwxMjQuNDR8MC4xNHwxNDQuMDA=)" />
    <g
       transform="matrix(0.35277778,0,0,0.35277778,158.35523,-74.067295)"
       id="g62"
       clip-path="url(#cpMC4wMHwxMjQuNDR8MC4wMHwxNDQuMDA=)" />
    <g
       transform="matrix(0.35277778,0,0,0.35277778,158.35523,-74.067295)"
       id="g64"
       clip-path="url(#cpMC4wMHwxMjQuNDR8MC4xNHwxNDQuMDA=)" />
    <g
       transform="matrix(0.35277778,0,0,0.35277778,158.35523,-74.067295)"
       id="g66"
       clip-path="url(#cpMC4wMHwxMjQuNDR8MC4wMHwxNDQuMDA=)" />
    <g
       transform="matrix(0.35277778,0,0,0.35277778,158.35523,-74.067295)"
       id="g68"
       clip-path="url(#cpMC4wMHwxMjQuNDR8MC4xNHwxNDQuMDA=)" />
    <g
       transform="matrix(0.35277778,0,0,0.35277778,158.35523,-74.067295)"
       id="g70"
       clip-path="url(#cpMC4wMHwxMjQuNDR8MC4wMHwxNDQuMDA=)" />
    <g
       transform="matrix(0.35277778,0,0,0.35277778,158.35523,-74.067295)"
       id="g72"
       clip-path="url(#cpMC4wMHwxMjQuNDR8MC4xNHwxNDQuMDA=)" />
    <g
       transform="matrix(0.35277778,0,0,0.35277778,158.35523,-74.067295)"
       id="g74"
       clip-path="url(#cpMC4wMHwxMjQuNDR8MC4wMHwxNDQuMDA=)" />
    <g
       transform="matrix(0.35277778,0,0,0.35277778,158.35523,-74.067295)"
       id="g76"
       clip-path="url(#cpMC4wMHwxMjQuNDR8MC4xNHwxNDQuMDA=)" />
    <g
       transform="matrix(0.35277778,0,0,0.35277778,158.35523,-74.067295)"
       id="g78"
       clip-path="url(#cpMC4wMHwxMjQuNDR8MC4wMHwxNDQuMDA=)" />
    <g
       transform="matrix(0.35277778,0,0,0.35277778,158.35523,-74.067295)"
       id="g80"
       clip-path="url(#cpMC4wMHwxMjQuNDR8MC4xNHwxNDQuMDA=)" />
    <g
       transform="matrix(0.35277778,0,0,0.35277778,158.35523,-74.067295)"
       id="g82"
       clip-path="url(#cpMC4wMHwxMjQuNDR8MC4wMHwxNDQuMDA=)" />
    <g
       transform="matrix(0.35277778,0,0,0.35277778,158.35523,-74.067295)"
       id="g84"
       clip-path="url(#cpMC4wMHwxMjQuNDR8MC4xNHwxNDQuMDA=)" />
    <g
       transform="matrix(0.35277778,0,0,0.35277778,158.35523,-74.067295)"
       id="g86"
       clip-path="url(#cpMC4wMHwxMjQuNDR8MC4wMHwxNDQuMDA=)" />
    <g
       transform="matrix(0.35277778,0,0,0.35277778,158.35523,-74.067295)"
       id="g88"
       clip-path="url(#cpMC4wMHwxMjQuNDR8MC4xNHwxNDQuMDA=)" />
    <g
       transform="matrix(0.35277778,0,0,0.35277778,158.35523,-74.067295)"
       id="g90"
       clip-path="url(#cpMC4wMHwxMjQuNDR8MC4wMHwxNDQuMDA=)" />
    <g
       transform="matrix(0.35277778,0,0,0.35277778,158.35523,-74.067295)"
       id="g92"
       clip-path="url(#cpMC4wMHwxMjQuNDR8MC4xNHwxNDQuMDA=)" />
    <g
       transform="matrix(0.35277778,0,0,0.35277778,158.35523,-74.067295)"
       id="g94"
       clip-path="url(#cpMC4wMHwxMjQuNDR8MC4wMHwxNDQuMDA=)" />
    <g
       transform="matrix(0.35277778,0,0,0.35277778,158.35523,-74.067295)"
       id="g96"
       clip-path="url(#cpMC4wMHwxMjQuNDR8MC4xNHwxNDQuMDA=)" />
    <g
       transform="matrix(0.35277778,0,0,0.35277778,158.35523,-74.067295)"
       id="g98"
       clip-path="url(#cpMC4wMHwxMjQuNDR8MC4wMHwxNDQuMDA=)" />
    <g
       transform="matrix(0.35277778,0,0,0.35277778,158.35523,-74.067295)"
       id="g100"
       clip-path="url(#cpMC4wMHwxMjQuNDR8MC4xNHwxNDQuMDA=)" />
    <g
       transform="matrix(0.35277778,0,0,0.35277778,158.35523,-74.067295)"
       id="g102"
       clip-path="url(#cpMC4wMHwxMjQuNDR8MC4wMHwxNDQuMDA=)" />
    <g
       transform="matrix(0.35277778,0,0,0.35277778,158.35523,-74.067295)"
       id="g104"
       clip-path="url(#cpMC4wMHwxMjQuNDR8MC4xNHwxNDQuMDA=)" />
    <g
       transform="matrix(0.35277778,0,0,0.35277778,158.35523,-74.067295)"
       id="g106"
       clip-path="url(#cpMC4wMHwxMjQuNDR8MC4wMHwxNDQuMDA=)" />
    <g
       transform="matrix(0.35277778,0,0,0.35277778,158.35523,-74.067295)"
       id="g112"
       clip-path="url(#cpMC4wMHwxMjQuNDR8MC4wMHwxNDQuMDA=)" />
    <text
       transform="matrix(0.35277778,0,0,0.35277778,158.35523,-74.067295)"
       style="font-size:30px;line-height:1.25;font-family:'IBM Plex Sans';-inkscape-font-specification:'IBM Plex Sans';white-space:pre;shape-inside:url(#rect2448);"
       id="text2446"
       xml:space="preserve" />
    <text
       transform="matrix(0.35277778,0,0,0.35277778,158.35523,-74.067295)"
       style="font-size:30px;line-height:1.25;font-family:'IBM Plex Sans';-inkscape-font-specification:'IBM Plex Sans';white-space:pre;shape-inside:url(#rect2454);"
       id="text2452"
       xml:space="preserve" />
    <text
       transform="matrix(0.35277778,0,0,0.35277778,158.35523,-74.067295)"
       style="font-size:30px;line-height:1.25;font-family:'IBM Plex Sans';-inkscape-font-specification:'IBM Plex Sans';white-space:pre;shape-inside:url(#rect2460);"
       id="text2458"
       xml:space="preserve" />
    <rect
       y="-124.76498"
       x="158.35522"
       id="rect6-0-5-2-32-9-8"
       style="fill:none;stroke:none;stroke-width:0.352777;stroke-linecap:round;stroke-linejoin:round;stroke-miterlimit:10"
       height="35.277775%"
       width="35.277775%" />
    <text
       transform="matrix(0.35277778,0,0,0.35277778,158.35523,-74.067295)"
       style="font-size:30px;line-height:1.25;font-family:'IBM Plex Sans';-inkscape-font-specification:'IBM Plex Sans';white-space:pre;shape-inside:url(#rect3500);"
       id="text3498"
       xml:space="preserve" />
    <g
       style="opacity:0.75;fill:#303134;fill-opacity:1;stroke:#ffffff;stroke-width:11.0407;stroke-miterlimit:4;stroke-dasharray:none;stroke-opacity:1"
       transform="matrix(0.03403774,-0.00193776,0.00193776,0.03403774,259.15451,47.548411)"
       id="g11074">
      <path
         d="M 260.23,242.48 C 470.17,49.91 703.98,47.53 770.09,50.38 c 54.62,2.3575 100.81,8.0024 121.59,12.397 34.724,7.3432 25.195,7.327 46.702,33.008 21.507,25.681 34.249,26.987 35.022,68.388 0.63801,34.21 5.9807,206.33 -60.35,357.28 -66.33,150.96 -113.03,188.58 -173.28,243.85 -60.25,55.26 -197.57,142.87 -350.57,174.11 -79.27,16.19 -298.03,7.65 -312.03,-10.34 -5.637,-8.26 -14.161,-17.48 -20.932,-22.5 -15.188,-16.56 -25.367,-51.22 -26.948,-79.87 -1.581,-28.65 -13.148,-189.89 60.548,-346.12 73.692,-156.24 170.39,-238.1 170.39,-238.1 z"
         style="fill:#303134;fill-opacity:1;stroke:#ffffff;stroke-width:11.0407;stroke-miterlimit:4;stroke-dasharray:none;stroke-opacity:1"
         id="path10183" />
      <path
         d="m 81.755,498.52 c -17.329,40.267 -29.251,80.502 -37.386,118.39 4.8183,9.8888 10.692,21.773 12.387,24.377 2.6562,4.0799 9.8658,7.23 9.8658,7.23 0,0 -0.24233,5.6715 6.7906,13.339 7.0329,7.6676 100.31,117.63 135.92,158.82 35.608,41.19 60.582,66.049 63.828,69.588 1.8593,2.0271 5.4259,4.4291 8.2525,6.1763 15.543,-4.2981 40.828,-11.574 59.3,-18.331 25.786,-9.4319 41.733,-15.98 51.254,-20.168 -0.92898,-3.5265 -2.8187,-8.4402 -6.4702,-10.992 -6.06,-4.24 -101.43,-104.63 -149.43,-160.52 -48,-55.88 -118.77,-135.42 -122.01,-138.95 -3.246,-3.5389 -3.423,-13.194 -3.423,-13.194 0,0 -2.9747,3.8179 -10.5,-5.5704 -7.5251,-9.3882 -13.348,-19.236 -15.955,-24.447 -0.62991,-1.2589 -1.4808,-3.3519 -2.4226,-5.756 z"
         style="fill:#303134;fill-opacity:1;stroke:#ffffff;stroke-width:11.0407;stroke-miterlimit:4;stroke-dasharray:none;stroke-opacity:1"
         id="path10193" />
      <path
         d="m 552.33,77.767 c 7.6396,1.441 16.468,3.7036 22.299,7.0918 10.117,5.8786 7.2293,4.2466 15.934,12.553 6.1574,5.8755 3.6488,6.8 1.6445,6.847 3.4263,0.19543 12.986,0.99306 15.66,3.9093 3.246,3.5389 82.226,81.738 133.77,134.38 51.541,52.64 131.27,147.86 134.96,154.25 1.9395,3.3594 5.3564,5.8918 8.1919,7.5795 6.3015,-11.345 20.928,-38.305 29.718,-59.927 6.415,-15.779 11.614,-29.352 15.137,-38.682 -0.26239,-4.2533 -0.85961,-8.2834 -2.1944,-9.7387 -3.246,-3.5389 -55.746,-68.375 -93.713,-107.4 -37.99,-39.03 -101.25,-98.675 -108.29,-106.34 -7.0329,-7.6676 -17.782,-8.1621 -17.782,-8.1621 0,0 -0.39445,-6.5863 -4.1954,-9.6282 -7.6255,-6.1026 -16.851,-9.38 -24.794,-11.164 -36.085,3.6608 -79.184,10.878 -126.37,24.433 z"
         style="fill:#303134;fill-opacity:1;stroke:#ffffff;stroke-width:11.0407;stroke-miterlimit:4;stroke-dasharray:none;stroke-opacity:1"
         id="path10195" />
      <path
         d="M 289.82,288.47 C 153.45,415.36 99.96,522.71 62.98,644.95 25.416,769.13 32.805,835.61 32.374,851.83 c -0.3,11.28 3.809,20.47 11.456,33.72 -5.995,-11.04 -8.774,-17.68 -8.312,-28.41 0.689,-15.95 -7.828,-85.53 31.194,-208.12 39.018,-122.59 94.538,-230.37 235.77,-359.92 141.23,-129.54 236.2,-175.73 383.62,-209.3 139.8,-31.838 222.75,-10.397 235.54,-5.55 -1.2528,-1.159 -2.2862,-1.9645 -2.9632,-2.3491 -5.5124,-3.1314 -87.158,-27.851 -236.28,3.8598 -149.13,31.709 -244.79,77.149 -386.02,206.7 -2.2067,2.0242 -4.3929,4.0008 -6.5575,6.015 z M 57.61,909.33 c 4.2556,4.7263 14.202,13.914 30.748,18.478 40.748,11.23 150.59,-10.01 255.02,-44.39 104.43,-34.38 242.91,-113.66 328.94,-192.57 86.029,-78.912 131.33,-125.93 204.77,-257.42 73.437,-131.5 82.936,-214.76 89.192,-261.43 4.8006,-35.815 -2.7091,-50.402 -7.8855,-57.023 4.8549,6.4989 10.548,20.133 3.9079,57.329 -8.1726,45.78 -15.73,125.31 -90.209,255.68 -74.47,130.35 -119.86,177.27 -205.89,256.19 -86.03,78.91 -223.74,159.03 -327.17,194.5 -103.44,35.47 -214.01,55.9 -253.97,45.52 -14.959,-3.88 -23.449,-10.75 -27.446,-14.87 z M 958.4,114.98 c -0.3498,-0.44736 -0.66239,-0.87296 -0.98631,-1.2515 0.31958,0.38304 0.6541,0.80699 0.98631,1.2515 z m -4.3892,-5.1379 c 0.45698,0.53357 1.002,1.2099 1.3109,1.5467 0.27987,0.30513 0.64798,0.70457 0.96669,1.0539 -0.38192,-0.41639 -1.6279,-1.8647 -2.2776,-2.6007 z"
         style="opacity:0.45588;fill:#303134;fill-opacity:1;stroke:#ffffff;stroke-width:11.0407;stroke-miterlimit:4;stroke-dasharray:none;stroke-opacity:1"
         id="path10191" />
      <path
         d="m 142.45,452.05 c -4.6501,-5.1162 -5.487,-8.0928 0.88539,-18.556 6.3723,-10.464 14.698,-20.834 21.395,-27.856 6.6976,-7.022 14.232,-11.067 18.93,-17.206 4.6977,-6.1385 11.721,-19.997 18.466,-27.996 6.7441,-7.9986 19.906,-17.159 23.069,-21.903 3.1629,-4.7434 7.0704,-14.835 19.396,-26.972 12.325,-12.137 20.371,-16.648 24.464,-20.368 4.0929,-3.7202 7.3024,-9.4403 19.163,-22.089 11.86,-12.649 19.86,-16.183 26.511,-22.228 6.6509,-6.0453 4.4191,-10.557 20.139,-22.043 15.7199,-11.486 25.626,-13.95 31.766,-19.53 6.1394,-5.5802 11.488,-15.114 23.581,-22.368 12.092,-7.254 21.394,-7.2996 29.486,-12.787 8.0926,-5.4871 13.395,-14.044 21.999,-19.996 8.6042,-5.9521 33.254,-19.948 39.579,-19.157 6.3248,0.79124 10.696,1.4893 15.346,6.6055 4.6501,5.1162 -4.7909,8.0918 -13.349,13.067 -8.5576,4.9754 -18.232,12.834 -22.325,16.554 -4.0929,3.7202 -16.372,14.881 -22.418,18.508 -6.0461,3.627 -18.557,9.3927 -29.114,15.252 -10.557,5.8589 -15.395,14.927 -25.581,23.251 -10.186,8.3238 -26.138,14.415 -30.277,19.112 -4.1395,4.6968 -16.558,18.787 -22.186,23.903 -5.6277,5.1152 -18.278,13.811 -23.394,18.461 -5.1161,4.6503 -16.651,20.741 -22.744,25.344 -6.0927,4.6036 -16.232,11.951 -23.953,19.903 -7.7208,7.952 -12.186,19.485 -20.419,27.902 -8.2324,8.417 -18.371,15.764 -25.116,23.763 -6.7442,7.9986 -8.0936,15.765 -15.908,25.67 -7.814,9.9053 -15.953,16.369 -23.209,24.833 -7.2558,8.4636 -12.512,16.044 -16.279,23.206 -3.7677,7.1618 -6.3723,10.464 -9.1158,6.4171 -2.7435,-4.0464 -8.7886,-10.697 -8.7886,-10.697 z"
         style="fill:#303134;fill-opacity:1;stroke:#ffffff;stroke-width:11.0407;stroke-miterlimit:4;stroke-dasharray:none;stroke-opacity:1"
         id="path10214" />
      <path
         d="m 134.21,442.8 c -2.2082,-2.9498 -5.2046,-5.6742 1.4143,-14.731 6.6188,-9.0565 9.5016,-9.7106 11.214,-7.3011 1.7125,2.4095 10.568,13.691 17.732,22.045 7.1649,8.3539 18.632,19.229 21.854,22.742 3.2219,3.5126 3.2908,7.9272 3.3598,12.342 0.0691,4.4146 0.72304,7.2974 -5.2008,6.2632 -5.92384,-1.0342 -11.803,-3.1045 -18.291,-9.0936 -6.4885,-5.9891 -20.682,-19.836 -23.634,-23.597 -2.9517,-3.7604 -8.4488,-8.6688 -8.4488,-8.6688 z"
         style="fill:#303134;fill-opacity:1;stroke:#ffffff;stroke-width:11.0407;stroke-miterlimit:4;stroke-dasharray:none;stroke-opacity:1"
         id="path10216" />
      <path
         d="m 172.5,391.25 c -1.938,-3.1977 -2.5026,-8.1526 1.077,-12.929 3.5796,-4.7761 5.8082,-8.3129 8.1282,-7.9533 2.32,0.35964 3.7846,2.4989 6.2406,5.719 2.456,3.2201 6.332,9.6154 15.254,19.343 8.9221,9.7272 15.5,13.644 19.218,17.697 3.7175,4.053 9.5743,6.6414 8.6296,10.493 -0.94474,3.8518 -1.3938,8.244 -4.2989,9.4161 -2.9051,1.1721 -12.477,0.49945 -19.98,-6.0525 -7.5022,-6.5519 -19.555,-15.895 -24.759,-21.57 -5.2046,-5.6742 -9.5091,-14.164 -9.5091,-14.164 z"
         style="fill:#303134;fill-opacity:1;stroke:#ffffff;stroke-width:11.0407;stroke-miterlimit:4;stroke-dasharray:none;stroke-opacity:1"
         id="path10218" />
      <path
         d="m 297.59,249.45 c -1.2951,-2.3861 -0.64923,-6.5525 2.7474,-9.6681 3.39663,-3.1156 6.5489,-11.368 10.715,-10.722 4.1663,0.64585 6.1508,8.6541 12.867,15.002 6.7163,6.3483 23.224,23.372 30.021,27.86 6.7966,4.4876 8.0516,7.804 8.8213,11.566 0.76969,3.7615 -0.32123,7.4427 -3.1925,9.1829 -2.8712,1.7402 -5.7023,2.5501 -15.695,-3.4736 -9.9925,-6.0237 -28.887,-21.752 -34.228,-27.575 -5.341,-5.8229 -12.057,-12.171 -12.057,-12.171 z"
         style="fill:#303134;fill-opacity:1;stroke:#ffffff;stroke-width:11.0407;stroke-miterlimit:4;stroke-dasharray:none;stroke-opacity:1"
         id="path10220" />
      <path
         d="m 358.89,189.65 c 3.8818,-3.5607 7.8474,1.7368 11.893,5.1737 4.0459,3.4368 26.34,26.769 31.236,32.106 4.8959,5.3377 12.258,7.5196 11.572,12.616 -0.68599,5.0968 2.0246,7.0779 -2.3023,10.153 -4.3269,3.0755 -11.81,3.6846 -17.596,-2.6236 -5.786,-6.3082 -25.855,-27.214 -29.901,-30.651 -4.0459,-3.4369 -11.328,-7.4794 -13.553,-9.9056 -2.2254,-2.4262 -5.9065,-3.5172 -1.0542,-7.9681 l 9.7046,-8.9018 z"
         style="fill:#303134;fill-opacity:1;stroke:#ffffff;stroke-width:11.0407;stroke-miterlimit:4;stroke-dasharray:none;stroke-opacity:1"
         id="path10222" />
      <path
         d="m 415.35,155.73 c 4.7318,-1.6599 8.858,-0.0836 14.684,5.2941 5.8262,5.3778 28.201,26.849 31.316,30.246 3.1156,3.3967 7.4057,11.97 6.7599,16.137 -0.64584,4.1664 -6.0235,9.9927 -11.08,8.3764 -5.0565,-1.6163 -11.974,-3.313 -15.779,-12.332 -3.8049,-9.0188 -23.144,-25.233 -26.705,-29.115 -3.5606,-3.882 -7.9277,0.12382 -11.488,-3.7581 -3.5606,-3.8819 -4.3705,-6.7131 0.40153,-9.3033 4.77203,-2.5902 11.89,-5.5452 11.89,-5.5452 z"
         style="fill:#303134;fill-opacity:1;stroke:#ffffff;stroke-width:11.0407;stroke-miterlimit:4;stroke-dasharray:none;stroke-opacity:1"
         id="path10224" />
      <path
         d="m 266.22,274.66 c 4.3269,-3.0755 4.5311,2.9918 8.577,6.4286 4.0459,3.4368 25.61,22.077 32.246,30.286 6.636,8.209 10.682,11.646 8.0148,19.453 -2.6671,7.8074 -3.5974,7.7673 -12.74,3.6444 -9.1425,-4.1229 -17.479,-16.133 -25.53,-23.938 -8.0516,-7.804 -15.698,-14.193 -20.149,-19.045 -4.4508,-4.8524 -2.4697,-7.5631 0.44168,-10.234 2.9114,-2.6706 9.1391,-6.596 9.1391,-6.596 z"
         style="fill:#303134;fill-opacity:1;stroke:#ffffff;stroke-width:11.0407;stroke-miterlimit:4;stroke-dasharray:none;stroke-opacity:1"
         id="path10226" />
      <path
         d="m 466.02,126.23 c 7.1179,-2.955 11.81,-3.6846 16.301,0.23753 4.4909,3.9221 31.922,27.01 35.402,32.752 3.4803,5.7426 7.3254,13.831 5.7493,17.957 -1.5762,4.1263 0.004,10.719 -11.364,4.1698 -11.368,-6.5491 -18.205,-10.106 -23.06,-16.374 -4.8557,-6.268 -9.4304,-19.048 -16.672,-24.021 -7.2417,-4.9729 -9.1826,-3.1925 -11.893,-5.1737 -2.7106,-1.9811 1.2917,-8.3328 1.2917,-8.3328 z"
         style="fill:#303134;fill-opacity:1;stroke:#ffffff;stroke-width:11.0407;stroke-miterlimit:4;stroke-dasharray:none;stroke-opacity:1"
         id="path10228" />
      <path
         d="m 218.46,322.93 c 3.3966,-3.1156 2.9114,-2.6705 8.2523,3.1524 5.341,5.8229 7.0811,8.6942 14.647,16.943 7.5663,8.2491 10.397,7.4393 15.738,13.262 5.3409,5.8229 9.9122,7.8844 12.502,12.656 2.5901,4.7721 3.0352,5.2574 0.93368,10.759 -2.1015,5.5017 -12.375,5.9903 -23.137,-3.7948 -10.762,-9.7852 -31.761,-30.731 -35.282,-35.543 -3.5205,-4.8123 -1.9042,-9.8689 0.48185,-11.164 2.38605,-1.2951 5.8629,-6.2714 5.8629,-6.2714 z"
         style="fill:#303134;fill-opacity:1;stroke:#ffffff;stroke-width:11.0407;stroke-miterlimit:4;stroke-dasharray:none;stroke-opacity:1"
         id="path10230" />
    </g>
    <path
       style="opacity:0.75;fill:#303134;fill-opacity:1;fill-rule:nonzero;stroke:#303134;stroke-width:0.647752;stroke-opacity:1"
       id="path1006"
       d="m 84.44858,61.145731 c 0.288507,-0.748814 0.450357,-1.567612 0.450357,-2.421401 0,-3.709083 -3.025832,-6.718339 -6.755331,-6.718339 -1.386254,0 -2.681015,0.419896 -3.750609,1.13372 -1.949188,-3.35917 -5.58722,-5.612612 -9.760056,-5.612612 -6.220569,0 -11.258965,5.01076 -11.258965,11.197231 0,0.188953 0.0076,0.377906 0.01403,0.56686 -3.940644,1.378659 -6.769471,5.115735 -6.769471,9.510648 0,5.563627 4.538783,10.077508 10.133095,10.077508 h 25.895489 c 4.975003,0 9.007089,-4.010007 9.007089,-8.957785 0,-4.331928 -3.096192,-7.950035 -7.205678,-8.77583 z"
       fill="currentColor" />
  </g>
</svg>
